<svg width="1920" height="240" viewBox="0 0 1920 240" xmlns="http://www.w3.org/2000/svg"><rect width="1920" height="240" fill="#fffdf9"/><path d="M1920,240C1601.8333333333333,250.83333333333334,275,258,0,240C-275,222,178.83333333333331,145.5,270,132C361.1666666666667,118.5,457,151.83333333333334,547,159C637,166.16666666666666,720.5,174.33333333333334,810,175C899.5,175.66666666666666,991.5,181.16666666666666,1084,163C1176.5,144.83333333333334,1273,69.16666666666667,1365,66C1457,62.833333333333336,1545.3333333333333,125.83333333333333,1636,144C1726.6666666666667,162.16666666666666,1861.6666666666667,159,1909,175C1956.3333333333333,191,2238.1666666666665,229.16666666666666,1920,240C1601.8333333333333,250.83333333333334,275,258,0,240" fill="#e86b8c"/></svg>